<?xml version="1.0" encoding="utf-8"?>
<!-- Generator: Adobe Illustrator 27.0.0, SVG Export Plug-In . SVG Version: 6.00 Build 0)  -->
<svg version="1.1" id="Layer_1" xmlns="http://www.w3.org/2000/svg" xmlns:xlink="http://www.w3.org/1999/xlink" x="0px" y="0px"
	 viewBox="0 0 171.7 24.5" style="enable-background:new 0 0 171.7 24.5;" xml:space="preserve">
<style type="text/css">
	.st0{fill-rule:evenodd;clip-rule:evenodd;}
	.st1{fill-rule:evenodd;clip-rule:evenodd;fill:#56B146;}
	.st2{fill-rule:evenodd;clip-rule:evenodd;fill:#C3233D;}
	.st3{fill-rule:evenodd;clip-rule:evenodd;fill:#D5246A;}
	.st4{fill-rule:evenodd;clip-rule:evenodd;fill:#E77A2B;}
	.st5{fill-rule:evenodd;clip-rule:evenodd;fill:#FAC922;}
	.st6{fill-rule:evenodd;clip-rule:evenodd;fill:#487FB5;}
	.st7{fill-rule:evenodd;clip-rule:evenodd;fill:#23477B;}
	.st8{fill-rule:evenodd;clip-rule:evenodd;fill:#419845;}
	.st9{fill-rule:evenodd;clip-rule:evenodd;fill:#014C3D;}
	.st10{fill-rule:evenodd;clip-rule:evenodd;fill:#008B47;}
</style>
<path class="st0" d="M132.6,4.5l-1.4,1.3h0l-1.4-1.3h-3.1l-1.7,2l-2-2v13.4h3.9V8.7h1.8l0.6,1v8.3h3.9l-0.4-0.5l0.4,0.5V9.6l0.6-1
	h1.2l0.5,1v8.3h4.1V7.6l-3.1-3.1H132.6z"/>
<path class="st0" d="M45.5,12.6L44,13.9h-4.1V8.7H44l1.4,1.6V12.6z M42.8,4.7h-2.9h0l-2,1.9l-2-1.9v17.8h4v-4.6l-0.1-0.1v0l0.1,0.1
	h5.7l3.5-3.1V8.4l-3.5-3.7H42.8z"/>
<path class="st0" d="M77.6,12.8V9.3h4.2V5.4h-4.2l-2-2.2l0,0l-2-2v13.7l4,3h5v-4h-3.3L77.6,12.8z"/>
<path class="st0" d="M67.1,14H63l-1.5-1.5v-2.2L63,8.9h4.2V14z M67.1,4.9h-5.7l-3.5,3v6.4l3.5,3.6h5.7l2-1.9l2,1.9v-9l-2-1.9
	L67.1,4.9z"/>
<path class="st0" d="M114.3,4.9l-2,2.1l-2-2.1v13h4.1V8.8h4.2l2.5,2.6V7l-2.6-2.1L114.3,4.9z"/>
<path class="st0" d="M84.6,3.3v14.5h4.1v-4.8h4.2V9.1h-4.2V5.6l1.7-1.3h3.3v-4h-5L84.6,3.3z"/>
<path class="st0" d="M53.3,2.5L53.3,2.5l-2-2.2v8.8l0,0v0l0,0v8.8h4.1V9.1l0,0v0l0,0V4.7l0,0L53.3,2.5z"/>
<path class="st0" d="M104.4,12.4l-1.5,1.5h-2.8l-1.5-1.5v-2.2l1.5-1.3h2.8l1.5,1.3V12.4z M98.5,4.9l-3.7,3v6.4l3.7,3.6h6l3.7-3.6
	V7.9l-3.7-3H98.5z"/>
<path class="st0" d="M151.8,9v3.3l-1.4,2h-3l-1.4-2V5.7l1.4-2h3l1.4,2l0,0V9z M145.8,0.3L142,3.7v10.5l3.8,3.5h6.1l3.8-3.5V3.7
	l-3.8-3.5H145.8z"/>
<path class="st0" d="M168.4,7.4L168.4,7.4l-0.1-0.1l0,0.1h-0.1l0-0.1h-5.2l-1.1-1V4.9l1.1-1.2h3.3l2.1,1.8l3.2-1.8L168,0.3h-6.1
	l-3.8,3.5v4.3l3.4,2.6h3.4v0h1.4l1.4,1v1.4l-1.4,1.2h-3l-2.1-1.8l-3.2,1.8l3.8,3.5h6.1l3.8-3.5V9.9L168.4,7.4L168.4,7.4z"/>
<path class="st1" d="M4.7,0h2.5L3.3,3.9L4.7,0z"/>
<path class="st2" d="M2,10.4c0,0-2-3.6-2-3.6l2,0L2,10.4z"/>
<path class="st3" d="M2,6.7l4,0l-4,3.6L2,6.7z"/>
<path class="st4" d="M5.9,13.6L6,6.7l-4,3.6L5.9,13.6z"/>
<path class="st5" d="M10.7,10.2l-4.8,3.4L6,6.7L10.7,10.2z"/>
<path class="st1" d="M13.7,5.7L6,6.7l4.7,3.4L13.7,5.7z"/>
<path class="st2" d="M11.9,0L8.8,3.8l4.9,1.8L11.9,0z"/>
<path class="st6" d="M19.2,0h-7.3l1.8,5.7L19.2,0z"/>
<path class="st3" d="M6,6.7l7.7-1.1L8.8,3.8L6,6.7z"/>
<path class="st7" d="M20.6,5.7h-6.9L19.2,0L20.6,5.7z"/>
<path class="st8" d="M17.1,12l-6.4-1.8l3-4.5L17.1,12z"/>
<path class="st9" d="M20.6,5.7L17.1,12l-3.4-6.3H20.6z"/>
<path class="st8" d="M23,10.2L17.1,12l3.5-6.3L23,10.2z"/>
<path class="st1" d="M22,13.9L17.1,12l5.9-1.8L22,13.9z"/>
<path class="st6" d="M19.2,0l5.3,4.4l-3.9,1.3L19.2,0z"/>
<path class="st10" d="M20.6,5.7l3.9-1.3L23,10.2L20.6,5.7z"/>
<path class="st9" d="M23,10.2l5.4,1L22,13.9L23,10.2z"/>
<path class="st8" d="M28.5,11.2l0.1,5.2L22,13.9L28.5,11.2z"/>
<path class="st7" d="M22,13.9l6.6,2.6l-5,0.8L22,13.9z"/>
<path class="st1" d="M28.5,16.4L26,22.1l-2.4-4.8L28.5,16.4z"/>
<path class="st6" d="M23.6,17.2l2.4,4.8L22.3,20L23.6,17.2z"/>
<path class="st7" d="M26,22.1l-3.6,2.4l0-4.5L26,22.1z"/>
<path class="st6" d="M22.3,20l0,4.5l-1.8-2.9L22.3,20z"/>
<path class="st7" d="M22.3,24.5h-4.9l3-2.9L22.3,24.5z"/>
<path class="st2" d="M20.5,21.6l-3,2.9l0.5-2.9H20.5z"/>
<path class="st3" d="M18,21.6l-0.5,2.9l-2.3-2.9H18z"/>
<path class="st2" d="M18,21.6h-2.9l1.7-2L18,21.6z"/>
<path class="st4" d="M15.1,21.6v-3.8l1.7,1.8L15.1,21.6z"/>
<path class="st1" d="M24.5,4.4l3.9,6.8l-5.4-1L24.5,4.4z"/>
<path class="st8" d="M18,17.9l-0.4-1.9l2.9,1.3L18,17.9z"/>
<path class="st1" d="M15.1,17.8l2.9,0.1l-0.4-1.9L15.1,17.8z"/>
<path class="st5" d="M16.8,19.6l1.2-1.7l-2.9-0.1L16.8,19.6z"/>
<path class="st8" d="M6.7,2.5l2.1,1.3L8.7,1.2L6.7,2.5z"/>
<path class="st1" d="M6.7,2.5l2-1.3L7.2,0L6.7,2.5z"/>
<path class="st10" d="M3.3,3.9L7.2,0L6.7,2.5L3.3,3.9z"/>
<path class="st9" d="M8.8,3.8L6.7,2.5l-1,1.4L8.8,3.8z"/>
<path class="st8" d="M3.3,3.9l3.4-1.4l-1,1.4L3.3,3.9z"/>
<path class="st4" d="M2,6.7l3.7-2.8L6,6.7L2,6.7z"/>
<path class="st2" d="M5.7,3.9L6,6.7l2.8-2.9L5.7,3.9z"/>
<path class="st5" d="M2,6.7l1.4-2.8l2.4,0L2,6.7z"/>
<path class="st8" d="M11.1,13.6l-1.2,2h3.4L11.1,13.6z"/>
<path class="st1" d="M8.5,13.6l1.4,2l1.2-2L8.5,13.6z"/>
<path class="st9" d="M10.7,10.2l0.4,3.4l6.1-1.6L10.7,10.2z"/>
<path class="st10" d="M13.3,15.6l3.9-3.6l-6.1,1.6L13.3,15.6z"/>
</svg>
